<mxfile host="65bd71144e">
    <diagram id="ze_PthrOZgFvTs9KR2b2" name="Page-1">
        <mxGraphModel dx="2660" dy="3898" grid="1" gridSize="10" guides="1" tooltips="1" connect="1" arrows="1" fold="1" page="1" pageScale="1" pageWidth="850" pageHeight="1100" math="0" shadow="0">
            <root>
                <mxCell id="0"/>
                <mxCell id="1" parent="0"/>
                <mxCell id="184" value="" style="whiteSpace=wrap;html=1;fillColor=#fff2cc;strokeColor=#d6b656;" parent="1" vertex="1">
                    <mxGeometry x="-410" y="-1410" width="1930" height="2480" as="geometry"/>
                </mxCell>
                <mxCell id="163" value="" style="group;shadow=1;" parent="1" vertex="1" connectable="0">
                    <mxGeometry x="200" y="-1400" width="1115" height="2420" as="geometry"/>
                </mxCell>
                <mxCell id="164" value="" style="whiteSpace=wrap;html=1;fillColor=#ffe6cc;strokeColor=#d79b00;" parent="163" vertex="1">
                    <mxGeometry width="160" height="2360" as="geometry"/>
                </mxCell>
                <mxCell id="165" value="&lt;font style=&quot;font-size: 24px;&quot;&gt;SW[6:4]&lt;/font&gt;" style="whiteSpace=wrap;html=1;" parent="163" vertex="1">
                    <mxGeometry x="20" y="20" width="120" height="40" as="geometry"/>
                </mxCell>
                <mxCell id="20" value="&lt;font style=&quot;font-size: 24px;&quot;&gt;Sawtooth wave&lt;/font&gt;" style="ellipse;whiteSpace=wrap;html=1;" parent="163" vertex="1">
                    <mxGeometry x="25" y="1550" width="110" height="110" as="geometry"/>
                </mxCell>
                <mxCell id="12" value="&lt;font style=&quot;font-size: 24px;&quot;&gt;Sin wave&lt;/font&gt;" style="ellipse;whiteSpace=wrap;html=1;" parent="163" vertex="1">
                    <mxGeometry x="25" y="1170" width="110" height="110" as="geometry"/>
                </mxCell>
                <mxCell id="14" value="&lt;font style=&quot;font-size: 24px;&quot;&gt;Square wave&lt;/font&gt;" style="ellipse;whiteSpace=wrap;html=1;" parent="163" vertex="1">
                    <mxGeometry x="25" y="800" width="110" height="110" as="geometry"/>
                </mxCell>
                <mxCell id="18" value="&lt;font style=&quot;font-size: 24px;&quot;&gt;Triangle wave&lt;/font&gt;" style="ellipse;whiteSpace=wrap;html=1;" parent="163" vertex="1">
                    <mxGeometry x="20" y="1350" width="120" height="120" as="geometry"/>
                </mxCell>
                <mxCell id="44" value="&lt;font style=&quot;font-size: 24px;&quot;&gt;Sin noise&lt;/font&gt;" style="ellipse;whiteSpace=wrap;html=1;" parent="163" vertex="1">
                    <mxGeometry x="15" y="2030" width="120" height="120" as="geometry"/>
                </mxCell>
                <mxCell id="42" value="&lt;font style=&quot;font-size: 24px;&quot;&gt;LSFR&lt;/font&gt;" style="ellipse;whiteSpace=wrap;html=1;" parent="163" vertex="1">
                    <mxGeometry x="15" y="1870" width="120" height="120" as="geometry"/>
                </mxCell>
                <mxCell id="22" value="&lt;font style=&quot;font-size: 24px;&quot;&gt;ECG wave&lt;/font&gt;" style="ellipse;whiteSpace=wrap;html=1;" parent="163" vertex="1">
                    <mxGeometry x="15" y="1710" width="120" height="120" as="geometry"/>
                </mxCell>
                <mxCell id="187" value="" style="group;shadow=1;" parent="1" vertex="1" connectable="0">
                    <mxGeometry x="740" y="-1400" width="180" height="2360" as="geometry"/>
                </mxCell>
                <mxCell id="188" value="" style="whiteSpace=wrap;html=1;fillColor=#ffe6cc;strokeColor=#d79b00;" parent="187" vertex="1">
                    <mxGeometry width="160" height="2360" as="geometry"/>
                </mxCell>
                <mxCell id="189" value="&lt;font style=&quot;font-size: 24px;&quot;&gt;SW[3:1]&lt;/font&gt;" style="whiteSpace=wrap;html=1;" parent="187" vertex="1">
                    <mxGeometry x="20" y="20" width="120" height="40" as="geometry"/>
                </mxCell>
                <mxCell id="197" value="&lt;font style=&quot;font-size: 24px;&quot;&gt;10%&lt;/font&gt;" style="ellipse;whiteSpace=wrap;html=1;" parent="187" vertex="1">
                    <mxGeometry x="40" y="510" width="80" height="80" as="geometry"/>
                </mxCell>
                <mxCell id="198" value="&lt;span style=&quot;font-size: 24px;&quot;&gt;20%&lt;/span&gt;" style="ellipse;whiteSpace=wrap;html=1;" parent="187" vertex="1">
                    <mxGeometry x="40" y="600" width="80" height="80" as="geometry"/>
                </mxCell>
                <mxCell id="199" value="&lt;span style=&quot;color: rgb(63, 63, 63); font-size: 24px;&quot;&gt;25%&lt;/span&gt;" style="ellipse;whiteSpace=wrap;html=1;" parent="187" vertex="1">
                    <mxGeometry x="40" y="690" width="80" height="80" as="geometry"/>
                </mxCell>
                <mxCell id="200" value="&lt;span style=&quot;color: rgb(63, 63, 63); font-size: 24px;&quot;&gt;33%&lt;/span&gt;" style="ellipse;whiteSpace=wrap;html=1;" parent="187" vertex="1">
                    <mxGeometry x="40" y="780" width="80" height="80" as="geometry"/>
                </mxCell>
                <mxCell id="201" value="&lt;span style=&quot;color: rgb(63, 63, 63); font-size: 24px;&quot;&gt;50%&lt;/span&gt;" style="ellipse;whiteSpace=wrap;html=1;" parent="187" vertex="1">
                    <mxGeometry x="40" y="870" width="80" height="80" as="geometry"/>
                </mxCell>
                <mxCell id="202" value="&lt;span style=&quot;color: rgb(63, 63, 63); font-size: 24px;&quot;&gt;75%&lt;/span&gt;" style="ellipse;whiteSpace=wrap;html=1;" parent="187" vertex="1">
                    <mxGeometry x="40" y="960" width="80" height="80" as="geometry"/>
                </mxCell>
                <mxCell id="203" value="&lt;span style=&quot;color: rgb(63, 63, 63); font-size: 24px;&quot;&gt;80%&lt;/span&gt;" style="ellipse;whiteSpace=wrap;html=1;" parent="187" vertex="1">
                    <mxGeometry x="40" y="1050" width="80" height="80" as="geometry"/>
                </mxCell>
                <mxCell id="204" value="&lt;span style=&quot;color: rgb(63, 63, 63); font-size: 24px;&quot;&gt;90%&lt;/span&gt;" style="ellipse;whiteSpace=wrap;html=1;" parent="187" vertex="1">
                    <mxGeometry x="40" y="1140" width="80" height="80" as="geometry"/>
                </mxCell>
                <mxCell id="170" value="" style="group;shadow=1;" parent="1" vertex="1" connectable="0">
                    <mxGeometry x="920" y="-1400" width="160" height="2360" as="geometry"/>
                </mxCell>
                <mxCell id="171" value="" style="whiteSpace=wrap;html=1;fillColor=#ffe6cc;strokeColor=#d79b00;" parent="170" vertex="1">
                    <mxGeometry width="160" height="2360" as="geometry"/>
                </mxCell>
                <mxCell id="172" value="&lt;font style=&quot;font-size: 24px;&quot;&gt;BTN[2]&lt;/font&gt;" style="whiteSpace=wrap;html=1;" parent="170" vertex="1">
                    <mxGeometry x="20" y="20" width="120" height="40" as="geometry"/>
                </mxCell>
                <mxCell id="138" value="&lt;font style=&quot;font-size: 24px;&quot;&gt;Adjust Amp&lt;/font&gt;" style="ellipse;whiteSpace=wrap;html=1;" parent="170" vertex="1">
                    <mxGeometry x="25" y="190" width="110" height="110" as="geometry"/>
                </mxCell>
                <mxCell id="177" value="" style="group;shadow=1;" parent="1" vertex="1" connectable="0">
                    <mxGeometry x="560" y="-1400" width="170" height="2360" as="geometry"/>
                </mxCell>
                <mxCell id="178" value="" style="whiteSpace=wrap;html=1;fillColor=#ffe6cc;strokeColor=#d79b00;" parent="177" vertex="1">
                    <mxGeometry width="160" height="2360" as="geometry"/>
                </mxCell>
                <mxCell id="179" value="&lt;font style=&quot;font-size: 24px;&quot;&gt;BTN[1]&lt;/font&gt;" style="whiteSpace=wrap;html=1;" parent="177" vertex="1">
                    <mxGeometry x="20" y="20" width="120" height="40" as="geometry"/>
                </mxCell>
                <mxCell id="135" value="&lt;font style=&quot;font-size: 24px;&quot;&gt;Save&lt;/font&gt;" style="ellipse;whiteSpace=wrap;html=1;" parent="177" vertex="1">
                    <mxGeometry x="25" y="330" width="110" height="110" as="geometry"/>
                </mxCell>
                <mxCell id="147" value="&lt;font style=&quot;font-size: 24px;&quot;&gt;Save&lt;/font&gt;" style="ellipse;whiteSpace=wrap;html=1;" parent="177" vertex="1">
                    <mxGeometry x="20" y="1420" width="120" height="120" as="geometry"/>
                </mxCell>
                <mxCell id="224" value="&lt;font style=&quot;font-size: 24px;&quot;&gt;Save&lt;/font&gt;" style="ellipse;whiteSpace=wrap;html=1;" parent="177" vertex="1">
                    <mxGeometry x="20" y="2170" width="120" height="120" as="geometry"/>
                </mxCell>
                <mxCell id="174" value="" style="group;shadow=1;" parent="1" vertex="1" connectable="0">
                    <mxGeometry x="380" y="-1400" width="160" height="2360" as="geometry"/>
                </mxCell>
                <mxCell id="175" value="" style="whiteSpace=wrap;html=1;fillColor=#ffe6cc;strokeColor=#d79b00;" parent="174" vertex="1">
                    <mxGeometry width="160" height="2360" as="geometry"/>
                </mxCell>
                <mxCell id="176" value="&lt;font style=&quot;font-size: 24px;&quot;&gt;BTN[0]&lt;/font&gt;" style="whiteSpace=wrap;html=1;" parent="174" vertex="1">
                    <mxGeometry x="20" y="20" width="120" height="40" as="geometry"/>
                </mxCell>
                <mxCell id="131" value="&lt;font style=&quot;font-size: 24px;&quot;&gt;Select Step&lt;/font&gt;" style="ellipse;whiteSpace=wrap;html=1;" parent="174" vertex="1">
                    <mxGeometry x="25" y="185" width="110" height="110" as="geometry"/>
                </mxCell>
                <mxCell id="133" value="&lt;font style=&quot;font-size: 24px;&quot;&gt;Select Step&lt;/font&gt;" style="ellipse;whiteSpace=wrap;html=1;" parent="174" vertex="1">
                    <mxGeometry x="30" y="490" width="110" height="110" as="geometry"/>
                </mxCell>
                <mxCell id="159" value="" style="group;shadow=1;" parent="1" vertex="1" connectable="0">
                    <mxGeometry x="20" y="-1400" width="160" height="2360" as="geometry"/>
                </mxCell>
                <mxCell id="160" value="" style="whiteSpace=wrap;html=1;fillColor=#ffe6cc;strokeColor=#d79b00;" parent="159" vertex="1">
                    <mxGeometry width="160" height="2360" as="geometry"/>
                </mxCell>
                <mxCell id="161" value="&lt;font style=&quot;font-size: 24px;&quot;&gt;SW[8:7]&lt;/font&gt;" style="whiteSpace=wrap;html=1;" parent="159" vertex="1">
                    <mxGeometry x="20" y="20" width="120" height="40" as="geometry"/>
                </mxCell>
                <mxCell id="127" value="&lt;font style=&quot;font-size: 24px;&quot;&gt;Adjusted Amplitude&lt;/font&gt;" style="ellipse;whiteSpace=wrap;html=1;fillColor=#f5f5f5;strokeColor=#666666;fontColor=#333333;" parent="159" vertex="1">
                    <mxGeometry x="25" y="185" width="110" height="110" as="geometry"/>
                </mxCell>
                <mxCell id="129" value="&lt;font style=&quot;font-size: 24px;&quot;&gt;Adjusted Freqency&lt;/font&gt;" style="ellipse;whiteSpace=wrap;html=1;fillColor=#f5f5f5;strokeColor=#666666;fontColor=#333333;" parent="159" vertex="1">
                    <mxGeometry x="25" y="490" width="110" height="110" as="geometry"/>
                </mxCell>
                <mxCell id="10" value="&lt;font style=&quot;font-size: 24px;&quot;&gt;Select Wave&lt;/font&gt;" style="ellipse;whiteSpace=wrap;html=1;fillColor=#f5f5f5;strokeColor=#666666;fontColor=#333333;" parent="159" vertex="1">
                    <mxGeometry x="25" y="1410" width="110" height="110" as="geometry"/>
                </mxCell>
                <mxCell id="5" value="&lt;span style=&quot;color: rgb(0, 0, 0);&quot;&gt;&lt;font style=&quot;font-size: 24px;&quot;&gt;Wave with Noise&lt;/font&gt;&lt;/span&gt;" style="ellipse;whiteSpace=wrap;html=1;fillColor=#f5f5f5;strokeColor=#666666;fontColor=#333333;" parent="159" vertex="1">
                    <mxGeometry x="25" y="2180" width="110" height="110" as="geometry"/>
                </mxCell>
                <mxCell id="157" value="" style="group;shadow=1;" parent="1" vertex="1" connectable="0">
                    <mxGeometry x="-160" y="-1400" width="1510" height="2430" as="geometry"/>
                </mxCell>
                <mxCell id="54" value="" style="whiteSpace=wrap;html=1;fillColor=#ffe6cc;strokeColor=#d79b00;" parent="157" vertex="1">
                    <mxGeometry width="160" height="2360" as="geometry"/>
                </mxCell>
                <mxCell id="55" value="&lt;font style=&quot;font-size: 24px;&quot;&gt;SW[9]&lt;/font&gt;" style="whiteSpace=wrap;html=1;" parent="157" vertex="1">
                    <mxGeometry x="20" y="20" width="120" height="40" as="geometry"/>
                </mxCell>
                <mxCell id="3" value="&lt;font style=&quot;font-size: 20px;&quot;&gt;RESET ACTIVE HIGH&lt;/font&gt;" style="ellipse;whiteSpace=wrap;html=1;fillColor=#f5f5f5;strokeColor=#666666;fontColor=#333333;" parent="157" vertex="1">
                    <mxGeometry x="25" y="1105" width="110" height="110" as="geometry"/>
                </mxCell>
                <mxCell id="4" value="" style="edgeStyle=none;html=1;" parent="1" source="2" target="3" edge="1">
                    <mxGeometry relative="1" as="geometry"/>
                </mxCell>
                <mxCell id="2" value="&lt;font style=&quot;font-size: 20px;&quot;&gt;Power On&lt;/font&gt;" style="ellipse;whiteSpace=wrap;html=1;fillColor=#d5e8d4;strokeColor=#82b366;" parent="1" vertex="1">
                    <mxGeometry x="-400" y="-280" width="80" height="80" as="geometry"/>
                </mxCell>
                <mxCell id="9" value="" style="edgeStyle=none;html=1;exitX=1;exitY=0.5;exitDx=0;exitDy=0;entryX=0;entryY=0.5;entryDx=0;entryDy=0;" parent="1" source="3" target="5" edge="1">
                    <mxGeometry relative="1" as="geometry"/>
                </mxCell>
                <mxCell id="11" value="" style="edgeStyle=none;html=1;entryX=0;entryY=0.5;entryDx=0;entryDy=0;exitX=1;exitY=0.5;exitDx=0;exitDy=0;" parent="1" source="3" target="10" edge="1">
                    <mxGeometry relative="1" as="geometry"/>
                </mxCell>
                <mxCell id="128" value="" style="edgeStyle=none;html=1;exitX=1;exitY=0.5;exitDx=0;exitDy=0;entryX=0;entryY=0.5;entryDx=0;entryDy=0;" parent="1" source="3" target="127" edge="1">
                    <mxGeometry relative="1" as="geometry"/>
                </mxCell>
                <mxCell id="130" style="edgeStyle=none;html=1;exitX=1;exitY=0.5;exitDx=0;exitDy=0;entryX=0;entryY=0.5;entryDx=0;entryDy=0;" parent="1" source="3" target="129" edge="1">
                    <mxGeometry relative="1" as="geometry">
                        <mxPoint x="520" y="-610" as="targetPoint"/>
                    </mxGeometry>
                </mxCell>
                <mxCell id="43" value="" style="edgeStyle=none;html=1;entryX=0;entryY=0.5;entryDx=0;entryDy=0;exitX=1;exitY=0.5;exitDx=0;exitDy=0;" parent="1" source="10" target="42" edge="1">
                    <mxGeometry relative="1" as="geometry">
                        <mxPoint x="240" y="210" as="sourcePoint"/>
                    </mxGeometry>
                </mxCell>
                <mxCell id="45" value="" style="edgeStyle=none;html=1;entryX=0;entryY=0.5;entryDx=0;entryDy=0;exitX=1;exitY=0.5;exitDx=0;exitDy=0;" parent="1" source="10" target="44" edge="1">
                    <mxGeometry relative="1" as="geometry"/>
                </mxCell>
                <mxCell id="156" value="" style="edgeStyle=none;html=1;entryX=0;entryY=0.5;entryDx=0;entryDy=0;exitX=1;exitY=0.5;exitDx=0;exitDy=0;" parent="1" source="5" target="224" edge="1">
                    <mxGeometry relative="1" as="geometry">
                        <mxPoint x="600" y="840" as="targetPoint"/>
                    </mxGeometry>
                </mxCell>
                <mxCell id="13" value="" style="edgeStyle=none;html=1;entryX=0;entryY=0.5;entryDx=0;entryDy=0;exitX=1;exitY=0.5;exitDx=0;exitDy=0;" parent="1" source="10" target="12" edge="1">
                    <mxGeometry relative="1" as="geometry"/>
                </mxCell>
                <mxCell id="15" value="" style="edgeStyle=none;html=1;entryX=0;entryY=0.5;entryDx=0;entryDy=0;exitX=1;exitY=0.5;exitDx=0;exitDy=0;" parent="1" source="10" target="14" edge="1">
                    <mxGeometry relative="1" as="geometry"/>
                </mxCell>
                <mxCell id="19" value="" style="edgeStyle=none;html=1;exitX=1;exitY=0.5;exitDx=0;exitDy=0;entryX=0;entryY=0.5;entryDx=0;entryDy=0;" parent="1" source="10" target="18" edge="1">
                    <mxGeometry relative="1" as="geometry"/>
                </mxCell>
                <mxCell id="21" value="" style="edgeStyle=none;html=1;entryX=0;entryY=0.5;entryDx=0;entryDy=0;exitX=1;exitY=0.5;exitDx=0;exitDy=0;" parent="1" source="10" target="20" edge="1">
                    <mxGeometry relative="1" as="geometry"/>
                </mxCell>
                <mxCell id="23" value="" style="edgeStyle=none;html=1;entryX=0.039;entryY=0.629;entryDx=0;entryDy=0;entryPerimeter=0;exitX=1;exitY=0.5;exitDx=0;exitDy=0;" parent="1" source="10" target="22" edge="1">
                    <mxGeometry relative="1" as="geometry"/>
                </mxCell>
                <mxCell id="148" style="edgeStyle=none;html=1;exitX=1;exitY=0.5;exitDx=0;exitDy=0;entryX=0;entryY=0.5;entryDx=0;entryDy=0;" parent="1" source="12" target="147" edge="1">
                    <mxGeometry relative="1" as="geometry"/>
                </mxCell>
                <mxCell id="150" style="edgeStyle=none;html=1;exitX=1;exitY=0.5;exitDx=0;exitDy=0;entryX=0;entryY=0.5;entryDx=0;entryDy=0;" parent="1" source="18" target="147" edge="1">
                    <mxGeometry relative="1" as="geometry"/>
                </mxCell>
                <mxCell id="151" style="edgeStyle=none;html=1;exitX=1;exitY=0.5;exitDx=0;exitDy=0;entryX=0;entryY=0.5;entryDx=0;entryDy=0;" parent="1" source="20" target="147" edge="1">
                    <mxGeometry relative="1" as="geometry"/>
                </mxCell>
                <mxCell id="152" style="edgeStyle=none;html=1;exitX=1;exitY=0.5;exitDx=0;exitDy=0;entryX=0;entryY=0.5;entryDx=0;entryDy=0;" parent="1" source="22" target="147" edge="1">
                    <mxGeometry relative="1" as="geometry"/>
                </mxCell>
                <mxCell id="153" style="edgeStyle=none;html=1;exitX=1;exitY=0.5;exitDx=0;exitDy=0;entryX=0;entryY=0.5;entryDx=0;entryDy=0;" parent="1" source="42" target="147" edge="1">
                    <mxGeometry relative="1" as="geometry"/>
                </mxCell>
                <mxCell id="154" style="edgeStyle=none;html=1;exitX=1;exitY=0.5;exitDx=0;exitDy=0;entryX=0;entryY=0.5;entryDx=0;entryDy=0;" parent="1" source="44" target="147" edge="1">
                    <mxGeometry relative="1" as="geometry"/>
                </mxCell>
                <mxCell id="132" value="" style="edgeStyle=none;html=1;exitX=1;exitY=0.5;exitDx=0;exitDy=0;entryX=0;entryY=0.5;entryDx=0;entryDy=0;" parent="1" source="127" target="131" edge="1">
                    <mxGeometry relative="1" as="geometry"/>
                </mxCell>
                <mxCell id="134" value="" style="edgeStyle=none;html=1;exitX=1;exitY=0.5;exitDx=0;exitDy=0;entryX=0;entryY=0.5;entryDx=0;entryDy=0;" parent="1" source="129" target="133" edge="1">
                    <mxGeometry relative="1" as="geometry"/>
                </mxCell>
                <mxCell id="136" value="" style="edgeStyle=none;html=1;exitX=1;exitY=0.5;exitDx=0;exitDy=0;entryX=0;entryY=0.5;entryDx=0;entryDy=0;" parent="1" source="131" target="135" edge="1">
                    <mxGeometry relative="1" as="geometry">
                        <mxPoint x="1226" y="-1039" as="sourcePoint"/>
                    </mxGeometry>
                </mxCell>
                <mxCell id="137" style="edgeStyle=none;html=1;exitX=1;exitY=0.5;exitDx=0;exitDy=0;entryX=0;entryY=0.5;entryDx=0;entryDy=0;" parent="1" source="133" target="135" edge="1">
                    <mxGeometry relative="1" as="geometry">
                        <mxPoint x="1330" y="-770" as="targetPoint"/>
                    </mxGeometry>
                </mxCell>
                <mxCell id="143" style="edgeStyle=none;html=1;exitX=1;exitY=0.5;exitDx=0;exitDy=0;entryX=0;entryY=0.5;entryDx=0;entryDy=0;" parent="1" source="135" target="138" edge="1">
                    <mxGeometry relative="1" as="geometry"/>
                </mxCell>
                <mxCell id="205" style="edgeStyle=none;html=1;exitX=1;exitY=0.5;exitDx=0;exitDy=0;entryX=0;entryY=0.5;entryDx=0;entryDy=0;" parent="1" source="14" target="197" edge="1">
                    <mxGeometry relative="1" as="geometry"/>
                </mxCell>
                <mxCell id="206" style="edgeStyle=none;html=1;exitX=1;exitY=0.5;exitDx=0;exitDy=0;entryX=0;entryY=0.5;entryDx=0;entryDy=0;" parent="1" source="14" target="198" edge="1">
                    <mxGeometry relative="1" as="geometry"/>
                </mxCell>
                <mxCell id="207" style="edgeStyle=none;html=1;exitX=1;exitY=0.5;exitDx=0;exitDy=0;entryX=0;entryY=0.5;entryDx=0;entryDy=0;" parent="1" source="14" target="199" edge="1">
                    <mxGeometry relative="1" as="geometry"/>
                </mxCell>
                <mxCell id="208" style="edgeStyle=none;html=1;exitX=1;exitY=0.5;exitDx=0;exitDy=0;entryX=0;entryY=0.5;entryDx=0;entryDy=0;" parent="1" source="14" target="200" edge="1">
                    <mxGeometry relative="1" as="geometry"/>
                </mxCell>
                <mxCell id="209" style="edgeStyle=none;html=1;exitX=1;exitY=0.5;exitDx=0;exitDy=0;entryX=0;entryY=0.5;entryDx=0;entryDy=0;" parent="1" source="14" target="201" edge="1">
                    <mxGeometry relative="1" as="geometry"/>
                </mxCell>
                <mxCell id="210" style="edgeStyle=none;html=1;exitX=1;exitY=0.5;exitDx=0;exitDy=0;entryX=0;entryY=0.5;entryDx=0;entryDy=0;" parent="1" source="14" target="202" edge="1">
                    <mxGeometry relative="1" as="geometry"/>
                </mxCell>
                <mxCell id="211" style="edgeStyle=none;html=1;exitX=1;exitY=0.5;exitDx=0;exitDy=0;entryX=0;entryY=0.5;entryDx=0;entryDy=0;" parent="1" source="14" target="203" edge="1">
                    <mxGeometry relative="1" as="geometry"/>
                </mxCell>
                <mxCell id="212" style="edgeStyle=none;html=1;exitX=1;exitY=0.5;exitDx=0;exitDy=0;entryX=0;entryY=0.5;entryDx=0;entryDy=0;" parent="1" source="14" target="204" edge="1">
                    <mxGeometry relative="1" as="geometry"/>
                </mxCell>
                <mxCell id="213" style="edgeStyle=none;html=1;exitX=1;exitY=0.5;exitDx=0;exitDy=0;entryX=1;entryY=0.5;entryDx=0;entryDy=0;" parent="1" source="197" target="147" edge="1">
                    <mxGeometry relative="1" as="geometry"/>
                </mxCell>
                <mxCell id="214" style="edgeStyle=none;html=1;exitX=1;exitY=0.5;exitDx=0;exitDy=0;entryX=1;entryY=0.5;entryDx=0;entryDy=0;" parent="1" source="198" target="147" edge="1">
                    <mxGeometry relative="1" as="geometry"/>
                </mxCell>
                <mxCell id="216" style="edgeStyle=none;html=1;exitX=1;exitY=0.5;exitDx=0;exitDy=0;entryX=1;entryY=0.5;entryDx=0;entryDy=0;" parent="1" source="199" target="147" edge="1">
                    <mxGeometry relative="1" as="geometry"/>
                </mxCell>
                <mxCell id="217" style="edgeStyle=none;html=1;exitX=1;exitY=0.5;exitDx=0;exitDy=0;entryX=1;entryY=0.5;entryDx=0;entryDy=0;" parent="1" source="200" target="147" edge="1">
                    <mxGeometry relative="1" as="geometry"/>
                </mxCell>
                <mxCell id="218" style="edgeStyle=none;html=1;exitX=1;exitY=0.5;exitDx=0;exitDy=0;entryX=1;entryY=0.5;entryDx=0;entryDy=0;" parent="1" source="201" target="147" edge="1">
                    <mxGeometry relative="1" as="geometry"/>
                </mxCell>
                <mxCell id="219" style="edgeStyle=none;html=1;exitX=1;exitY=0.5;exitDx=0;exitDy=0;entryX=1;entryY=0.5;entryDx=0;entryDy=0;" parent="1" source="202" target="147" edge="1">
                    <mxGeometry relative="1" as="geometry"/>
                </mxCell>
                <mxCell id="220" style="edgeStyle=none;html=1;exitX=1;exitY=0.5;exitDx=0;exitDy=0;entryX=1;entryY=0.5;entryDx=0;entryDy=0;" parent="1" source="203" target="147" edge="1">
                    <mxGeometry relative="1" as="geometry"/>
                </mxCell>
                <mxCell id="221" style="edgeStyle=none;html=1;exitX=1;exitY=0.5;exitDx=0;exitDy=0;entryX=1;entryY=0.5;entryDx=0;entryDy=0;" parent="1" source="204" target="147" edge="1">
                    <mxGeometry relative="1" as="geometry"/>
                </mxCell>
                <mxCell id="222" style="edgeStyle=none;html=1;exitX=1;exitY=0.5;exitDx=0;exitDy=0;entryX=0;entryY=0.5;entryDx=0;entryDy=0;" parent="1" source="14" target="147" edge="1">
                    <mxGeometry relative="1" as="geometry"/>
                </mxCell>
                <mxCell id="223" value="" style="group" parent="1" vertex="1" connectable="0">
                    <mxGeometry x="1120" y="-1400" width="320" height="2360" as="geometry"/>
                </mxCell>
                <mxCell id="180" value="" style="group;shadow=1;" parent="223" vertex="1" connectable="0">
                    <mxGeometry width="160" height="2360" as="geometry"/>
                </mxCell>
                <mxCell id="181" value="" style="whiteSpace=wrap;html=1;fillColor=#ffe6cc;strokeColor=#d79b00;" parent="180" vertex="1">
                    <mxGeometry width="160" height="2360" as="geometry"/>
                </mxCell>
                <mxCell id="182" value="&lt;font style=&quot;font-size: 24px;&quot;&gt;BTN[3]&lt;/font&gt;" style="whiteSpace=wrap;html=1;" parent="180" vertex="1">
                    <mxGeometry x="20" y="20" width="120" height="40" as="geometry"/>
                </mxCell>
                <mxCell id="34" value="&lt;font style=&quot;font-size: 24px;&quot;&gt;Adjust Freq&lt;/font&gt;" style="ellipse;whiteSpace=wrap;html=1;" parent="180" vertex="1">
                    <mxGeometry x="25" y="740" width="110" height="110" as="geometry"/>
                </mxCell>
                <mxCell id="100" style="edgeStyle=none;html=1;exitX=1;exitY=0.5;exitDx=0;exitDy=0;entryX=0;entryY=0.5;entryDx=0;entryDy=0;" parent="223" source="34" target="71" edge="1">
                    <mxGeometry relative="1" as="geometry"/>
                </mxCell>
                <mxCell id="101" style="edgeStyle=none;html=1;exitX=1;exitY=0.5;exitDx=0;exitDy=0;entryX=0;entryY=0.5;entryDx=0;entryDy=0;" parent="223" source="34" target="73" edge="1">
                    <mxGeometry relative="1" as="geometry"/>
                </mxCell>
                <mxCell id="102" style="edgeStyle=none;html=1;exitX=1;exitY=0.5;exitDx=0;exitDy=0;entryX=0;entryY=0.5;entryDx=0;entryDy=0;" parent="223" source="34" target="74" edge="1">
                    <mxGeometry relative="1" as="geometry"/>
                </mxCell>
                <mxCell id="103" style="edgeStyle=none;html=1;exitX=1;exitY=0.5;exitDx=0;exitDy=0;entryX=0;entryY=0.5;entryDx=0;entryDy=0;" parent="223" source="34" target="75" edge="1">
                    <mxGeometry relative="1" as="geometry"/>
                </mxCell>
                <mxCell id="104" style="edgeStyle=none;html=1;exitX=1;exitY=0.5;exitDx=0;exitDy=0;entryX=0;entryY=0.5;entryDx=0;entryDy=0;" parent="223" source="34" target="76" edge="1">
                    <mxGeometry relative="1" as="geometry"/>
                </mxCell>
                <mxCell id="105" style="edgeStyle=none;html=1;exitX=1;exitY=0.5;exitDx=0;exitDy=0;entryX=0;entryY=0.5;entryDx=0;entryDy=0;" parent="223" source="34" target="78" edge="1">
                    <mxGeometry relative="1" as="geometry"/>
                </mxCell>
                <mxCell id="106" style="edgeStyle=none;html=1;exitX=1;exitY=0.5;exitDx=0;exitDy=0;entryX=0;entryY=0.5;entryDx=0;entryDy=0;" parent="223" source="34" target="77" edge="1">
                    <mxGeometry relative="1" as="geometry"/>
                </mxCell>
                <mxCell id="107" style="edgeStyle=none;html=1;exitX=1;exitY=0.5;exitDx=0;exitDy=0;entryX=0;entryY=0.5;entryDx=0;entryDy=0;" parent="223" source="34" target="79" edge="1">
                    <mxGeometry relative="1" as="geometry"/>
                </mxCell>
                <mxCell id="71" value="&lt;font style=&quot;font-size: 24px;&quot;&gt;-1&lt;/font&gt;" style="ellipse;whiteSpace=wrap;html=1;" parent="223" vertex="1">
                    <mxGeometry x="240" y="400" width="80" height="80" as="geometry"/>
                </mxCell>
                <mxCell id="73" value="&lt;font style=&quot;font-size: 24px;&quot;&gt;+1&lt;/font&gt;" style="ellipse;whiteSpace=wrap;html=1;" parent="223" vertex="1">
                    <mxGeometry x="240" y="520" width="80" height="80" as="geometry"/>
                </mxCell>
                <mxCell id="74" value="&lt;font style=&quot;font-size: 24px;&quot;&gt;-4&lt;/font&gt;" style="ellipse;whiteSpace=wrap;html=1;" parent="223" vertex="1">
                    <mxGeometry x="240" y="640" width="80" height="80" as="geometry"/>
                </mxCell>
                <mxCell id="75" value="&lt;font style=&quot;font-size: 24px;&quot;&gt;+4&lt;/font&gt;" style="ellipse;whiteSpace=wrap;html=1;" parent="223" vertex="1">
                    <mxGeometry x="240" y="760" width="80" height="80" as="geometry"/>
                </mxCell>
                <mxCell id="76" value="&lt;font style=&quot;font-size: 24px;&quot;&gt;-16&lt;/font&gt;" style="ellipse;whiteSpace=wrap;html=1;" parent="223" vertex="1">
                    <mxGeometry x="240" y="880" width="80" height="80" as="geometry"/>
                </mxCell>
                <mxCell id="77" value="&lt;font style=&quot;font-size: 24px;&quot;&gt;-64&lt;/font&gt;" style="ellipse;whiteSpace=wrap;html=1;" parent="223" vertex="1">
                    <mxGeometry x="240" y="1120" width="80" height="80" as="geometry"/>
                </mxCell>
                <mxCell id="78" value="&lt;font style=&quot;font-size: 24px;&quot;&gt;+16&lt;/font&gt;" style="ellipse;whiteSpace=wrap;html=1;" parent="223" vertex="1">
                    <mxGeometry x="240" y="1000" width="80" height="80" as="geometry"/>
                </mxCell>
                <mxCell id="79" value="&lt;font style=&quot;font-size: 24px;&quot;&gt;+64&lt;/font&gt;" style="ellipse;whiteSpace=wrap;html=1;" parent="223" vertex="1">
                    <mxGeometry x="240" y="1240" width="80" height="80" as="geometry"/>
                </mxCell>
                <mxCell id="139" value="&lt;font style=&quot;font-size: 24px;&quot;&gt;-1&lt;/font&gt;" style="ellipse;whiteSpace=wrap;html=1;" parent="223" vertex="1">
                    <mxGeometry x="240" y="140" width="80" height="80" as="geometry"/>
                </mxCell>
                <mxCell id="140" value="&lt;font style=&quot;font-size: 24px;&quot;&gt;+1&lt;/font&gt;" style="ellipse;whiteSpace=wrap;html=1;" parent="223" vertex="1">
                    <mxGeometry x="240" y="280" width="80" height="80" as="geometry"/>
                </mxCell>
                <mxCell id="141" style="edgeStyle=none;html=1;exitX=1;exitY=0.5;exitDx=0;exitDy=0;entryX=0;entryY=0.5;entryDx=0;entryDy=0;" parent="1" source="138" target="139" edge="1">
                    <mxGeometry relative="1" as="geometry"/>
                </mxCell>
                <mxCell id="142" style="edgeStyle=none;html=1;exitX=1;exitY=0.5;exitDx=0;exitDy=0;entryX=0;entryY=0.5;entryDx=0;entryDy=0;" parent="1" source="138" target="140" edge="1">
                    <mxGeometry relative="1" as="geometry"/>
                </mxCell>
                <mxCell id="146" style="edgeStyle=none;html=1;exitX=1;exitY=0.5;exitDx=0;exitDy=0;entryX=0;entryY=0.5;entryDx=0;entryDy=0;" parent="1" source="135" target="34" edge="1">
                    <mxGeometry relative="1" as="geometry"/>
                </mxCell>
                <mxCell id="225" style="edgeStyle=none;html=1;exitX=1;exitY=0.5;exitDx=0;exitDy=0;entryX=0;entryY=0.5;entryDx=0;entryDy=0;" edge="1" parent="1" source="147" target="138">
                    <mxGeometry relative="1" as="geometry"/>
                </mxCell>
                <mxCell id="226" style="edgeStyle=none;html=1;exitX=1;exitY=0.5;exitDx=0;exitDy=0;entryX=0;entryY=0.5;entryDx=0;entryDy=0;" edge="1" parent="1" source="147" target="34">
                    <mxGeometry relative="1" as="geometry"/>
                </mxCell>
            </root>
        </mxGraphModel>
    </diagram>
</mxfile>